<svg id="_2" data-name="2" xmlns="http://www.w3.org/2000/svg" viewBox="0 0 512 512"><title>books</title><path d="M511.41,217.73a27.37,27.37,0,0,0-16.85-19.86l-30.2-11.74v31l5.72,2.22a8.21,8.21,0,0,1,2.83,13.45L279.14,426.61a13.69,13.69,0,0,1-14.62,3.07l-43.06-16.75v31l30.23,11.76a46.48,46.48,0,0,0,49.72-10.45L504,242.69A27.34,27.34,0,0,0,511.41,217.73Z"/><path d="M30.91,299.68c1.36-18.89,7.42-43.65,28.47-42.48L251.58,332A46.49,46.49,0,0,0,301.4,321.4l185.77-187a27.33,27.33,0,0,0-9.48-44.74l-191-74.29a46.48,46.48,0,0,0-49.82,10.56L21.65,242.54C4.63,256.55,0,282.66,0,305.86s1.54,51,27.84,61.87l-6.2-1.45,57.94,22.53V368.07a47.16,47.16,0,0,1,1.11-9.88L41.76,343C29.37,338.35,29.36,321.5,30.91,299.68Z"/><path d="M111,352.66a21.85,21.85,0,0,0-6.38,15.41v96.08l40.82-8.74,50.89,44.38v-96a21.79,21.79,0,0,1,6.39-15.42L219,372l-91.71-35.66Z"/></svg>