<svg id="圖層_1" data-name="圖層 1" xmlns="http://www.w3.org/2000/svg" viewBox="0 0 513.87 507.27"><defs><style>.cls-1,.cls-2{fill-rule:evenodd;}.cls-2{fill:#fff;}</style></defs><title>favicon</title><path class="cls-1" d="M128.77,390.87c-9.5-13.72-39.28-55.48-45-68.47C75,302.62,65.31,280.56,71.27,259c4.51-16.32,15.42-30.27,32.67-31.83a144.51,144.51,0,0,1,60.25,7.08c-2.42,6.08-3.48,11.1-3.47,16.15.1,28.36,13,49.49,38.55,61.37,13.27,6.18,27.91,9.62,42.15,13.48,14.61,4,29.51,6.84,42.91,14.34,6.77,3.79,12,8.95,14.08,16.71,3,11.14-1.06,21.88-11.35,29.19-20.92,14.86-42.68,14.05-64.48,2.33-19.2-10.32-31-27.27-40-46.52-1.86-4-3.75-8-5.62-11.94-7.39,3.83-10.49,9.25-9.08,17.05.87,4.83,4.75,13.82,11.75,24,15.47,22.47,24.07,27.86,44.92,38,23,11.17,69.58,5.19,89.33-20,16.54-24,8.83-55.46-17.09-68.65a175.37,175.37,0,0,0-25.44-10.19c-20.56-6.66-41.41-12.42-61.89-19.3-22.64-7.6-36.21-27.49-35.73-51.12a12.83,12.83,0,0,1,2.24-6.81c2.54-3.55,2.84-6.84-.15-9.9-4.52-4.62-8.93-9.53-14.11-13.31-14.12-10.3-30.2-16.06-47.48-18.27-33.53-4.3-59.85,3.17-81.56,37-5.27,8.21-10.27,26.3-10.19,35.94.2,26.61,9.45,44.65,23.5,67.17,8.06,11.86,4.6,9.13,26.43,30.43,10.32,10.07,38.48,26.82,48.19,31.19C130.89,397.2,134,398.46,128.77,390.87Z"/><path class="cls-1" d="M233.95,155.67c1.39-3.67.07-4.73-3-6.9-8.12-5.77-16-11.82-25.19-18.63a74.23,74.23,0,0,1,7.67-.14s19.45,0,25.92-.4c3.83-.26,3.17-.51,4.9-5.92,2.54-7.91,4.83-15.9,7.31-23.84.53-1.69,1.21-3.34,2.32-6.38,3.51,11.09,6.35,20.91,9.55,30.6,1.85,5.6,3.1,5.71,5,5.76,8.29.23,22.25.08,33.17.17-7.87,5.72-15.82,12.73-23.92,18.09-4.14,2.74-4.49,5.26-3.15,9.93,2.41,8.4,3.53,11.52,6.17,19,.72,2,1.58,4.17,1.58,4.17s12.61,2.69,15.82,3.78c12.25,4.16,18.05,5.79,31.58,14.82,6.32,4.22,10.66,9.15,16.58,14.51a105.7,105.7,0,0,1,43.68-21.34c21.15-4.75,42.2-5.35,61.68,5.73,18.11,10.31,33.21,24.1,37.87,45.4a86.49,86.49,0,0,1,1.13,30.19C482.89,327.73,451,363.68,405.17,389c-4.06,2.24-8.39,4-12.66,5.86a31.16,31.16,0,0,1-4.77,1.25l-1.22-1a85.54,85.54,0,0,1,4.46-8.43c9.69-14.35,19.91-28.35,29.18-43,10.41-16.4,21.15-34,23.53-53.57,1.64-13.46,3.22-27-2.92-39.33-6.29-12.6-20.38-21.07-34.17-21.25-13.58-.18-26.32.55-39.92,1.33-6,.34-15.48,1.82-21.42,1.5-8.18-.44-9.59-2-6.13-9.58.34-.74.69-1.48,1.35-2.9-9.61-2.62-18.93-5.33-28.34-7.7-12.73-3.21-25.39-7-38.32-9-17.8-2.87-34.36,2.47-49.69,11.23-7.94,4.54-10,12.65-9.28,21.23s5.94,13.86,14.08,16.18c21.89,6.25,43.91,12.09,65.69,18.73,16.44,5,32.75,11,44.66,24.23,21.34,23.77,23.43,52.68,3.47,79.76A8.32,8.32,0,0,0,342,377l-1.62-1.2c.37-3,.88-6.09,1.09-9.15,2.23-33-13.65-58.79-44.78-70.06-19.5-7.06-39.7-12.21-59.58-18.19-10.7-3.22-21.43-6.53-30.22-13.77-14.36-11.83-21.2-27-17.28-45.51,2.81-13.31,12-23.25,23.61-29.4A101.7,101.7,0,0,1,223.75,185"/><path class="cls-2" d="M274,180.34c-17.55-.93-29.55-.18-46.43,4.39,4.92-3.61,9.57-7.09,14.3-10.46,6.92-4.93,10.35-8.29,11.89-8.29s4.77,3.26,12,8.28C268.47,176.16,271.09,178.17,274,180.34Z"/></svg>