<svg id="圖層_1" data-name="圖層 1" xmlns="http://www.w3.org/2000/svg" viewBox="0 0 464 373.69"><defs><style>.cls-1{fill:#fff;fill-rule:evenodd;}</style></defs><title>footer_logo</title><path class="cls-1" d="M116.86,246.24a229.67,229.67,0,0,0,13.76-22.54c7.29-13.61,14-27.57,22.43-40.53,4.7-7.2,10.93-12.42,19.57-14.28,1.2-.38,2.38-.67,2.87.87a.52.52,0,0,0-.61.18c-11.19,8.08-17.78,19.22-20.8,32.42q-4.34,19-9.94,37.55c-1.66,5.57-3.42,11.16-4,17.38,2.47-1.07,3.13-3.08,4.25-4.63,14.19-19.7,27.77-39.87,44.71-57.44,9.39-9.74,19.47-18.66,31-25.82.93-.58,2.24-2.25,3.39-.6,1,1.46-.94,1.81-1.66,2.44a118.57,118.57,0,0,0-21.63,25.39c-10.94,16.79-20.34,34.3-23.88,54.34-1.27,7.2-.45,14,5,19.47,1.56,1.58,3,4.34,5.68,2.66,2.27-1.45.91-4,.06-5.81-2.87-6.29-2.44-12.61-.55-19a229.42,229.42,0,0,1,36.62-72.52,45.15,45.15,0,0,1,11.55-10.95,21.75,21.75,0,0,1,11.17-3.79c4.08-.16,7.93.28,10.77,3.91.85-2.11.3-3.31-1.42-3.92-3.7-1.31-7.4-2.53-11.46-1.87-10.44,1.69-20.28,4.79-29.22,10.71-20.26,13.43-36.82,30.53-50.77,50.3-2.83,4-5.8,7.9-8.71,11.85a7.35,7.35,0,0,1,.38-4.51c4.36-12.36,9.05-24.62,12.38-37.31,1.83-7,4.43-13.51,9.14-19.07,1.48-1.43,5-1,4.78-3.44-.11-1.58-3.11-2-4.92-2.77-23-9.39-47.05-12.57-71.67-11.74-11.58.39-19,6.29-21.31,15.41-4.83,19.11,11,34.83,31.42,31.11,7.93-1.44,15.76-3.33,18.82-12.34a4.45,4.45,0,0,0,.6-4.86c-1.27.43-1.51,1.51-1.85,2.5-5.76,7.8-13.62,10.74-23.08,9.92C96.67,193.79,88.6,185.64,89,174s7.61-17.75,21.68-17.91a195.41,195.41,0,0,1,31.85,2.35,148.37,148.37,0,0,1,29.62,7.27c-9,1.3-15,5.93-20.16,11.8-5.73,6.54-10.07,14-14.18,21.64A280.84,280.84,0,0,1,110,241.63c-8,9.94-17.67,17.55-30.65,20-11.27,2.12-21.64-3-24.42-12.13-4.58-15.05,8.67-28.83,25.73-27,9,1,15.48,5.49,20.94,13.85-.48-5.46-2.28-8.82-5.17-11.66-12.33-12.14-38-8-45.93,7.37-5.89,11.45-1.13,29.56,14.93,32.38,6.33,1.11,12.61.9,18.9.43C98.05,263.84,108.91,257.68,116.86,246.24Z"/><path class="cls-1" d="M245.58,214.19a26.52,26.52,0,0,0-9.74,11.12c-3.42,7-6.63,14.11-10,21.14-1.54,3.2-3.54,6.08-7,7.5-4.61,1.91-7.56.14-7.87-4.85a24.39,24.39,0,0,1,3.73-15.23,70.31,70.31,0,0,0,7.37-14.1,9.3,9.3,0,0,0,.64-5.35c-.21-1-.44-2.18-1.49-2.34-1.36-.21-1.3,1.14-1.58,2.06-1.54,5-4.79,9.08-7.67,13.33-2.05,3-4.55,5.81-5.65,9.35-1.81,5.84-2.66,11.83.59,17.41,2.66,4.56,7.4,4,12.33,3.44-1.78,3.09-3.19,5.7-4.75,8.21-10.87,17.58-22,35-38.82,47.7-12.8,9.61-27.06,14.8-43.33,12.45-8.55-1.24-14.23-6.57-15.88-14.41A19.1,19.1,0,0,1,125,291.38a28,28,0,0,1,35.16,4.07c.58.61.9,2,2.59,1.06-.87-4.22-3.37-7.27-6.91-9.65-12.21-8.22-30.46-5.32-39.66,6.3-9.84,12.44-3.59,31.59,11.68,35.53a43.51,43.51,0,0,0,8.87,1.26c19.32.87,35.8-6.31,50.13-18.63,23.85-20.5,39.5-46.8,52-75.19,3.47-7.86,6.35-16,12.34-23.33C248.59,212.18,247.07,213.26,245.58,214.19Z"/><path class="cls-1" d="M370.27,232.92c3.41-4.59,3-3.67,5.91-8.12,4.31.5,3.72-.13,8.2.42a68.46,68.46,0,0,0-11.44,18.15c-2,4.79-1,10.33,2.15,12.9,3.31,2.71,8.31,2.47,12.86-1,6.28-4.83,11-11.06,14.88-17.9a1.56,1.56,0,0,0-.27-1.91c-2.19.13-2.64,2.17-3.63,3.54-3.68,5.13-7.11,10.45-12.21,14.37-1.95,1.5-4,2.7-6.34,1.17s-1.36-3.75-.82-5.88c3.12-12.28,10-22.27,18.59-31.32.95-1,2.73-2,1.21-3.68s-2.72.2-3.64,1a16.48,16.48,0,0,1-13.56,4.28,36.37,36.37,0,0,0,2-4.4c.64-2.16-.32-3.91-2-5.25a4,4,0,0,0-4.16-.93c-5,1.91-7.45,7.71-4.88,14.84-3.78,6.73-6.36,9.62-10.62,15.22-3.93,5.16-4.81,7-8.19,11.37-1.68,2.16-5.32,7.26-8.06,5.69-3.1-1.78-1.42-5.39-.52-8.17,3.34-10.19,8.87-19.29,14.39-28.39.81-1.34,2.31-2.43,1.91-4.39a11.5,11.5,0,0,0-7.68,1.53c-.86.46-1.37,1.54-2.69-.08-4.74-5.83-9.25-6.75-16-3.17A39.62,39.62,0,0,0,316.36,236c-2.83,8.55-8.78,14-16.2,18-6.21,3.33-9.62.76-9.19-6.12a19.27,19.27,0,0,1,2.27-8.09c2.53-4.67,5.26-9.26,7.44-14.1,2.67-5.93,5.59-10.83,13.43-8.6,1.14.32,2.63-.25,3.86-.67,6-2,7.34-6.11,4.09-11.88-4.33,6.3-6.4,7.28-12.88,5.94,2-3.31,3.92-6.61,6-9.78,10.26-15.58,20.55-31.15,35.54-42.81,12.12-9.42,25.69-14.63,41.19-13.59,10.23.69,17.14,6.75,18.71,15.68,1.66,9.45-2.93,18-12.29,22.16-10.57,4.69-20.39,3.19-29.34-4.21-1.38-1.14-2.17-3.66-4.71-2.65,1.64,5,4.74,8.94,9.67,10.59,12.51,4.18,24.42,3.08,34.57-6,7.28-6.53,8.85-15,6.32-24.23-2.3-8.41-8.66-12.26-16.72-13.71-19.93-3.59-37.5,2.24-53.39,14-17.46,12.88-30.15,30-41.09,48.39-2.53,4.26-4.95,7-10.22,6.47a9.62,9.62,0,0,0-6.53,2.12c-3.58,2.68-3.88,6.57-.58,10.05,2-4.39,5.29-6.55,9.87-6.45-4.47,13.34-11.19,24.91-24.84,32.38,5.73-8.12,3.49-14.82-1.23-21.67-4.09-5.94-3.53-12.09.6-15.94a53.16,53.16,0,0,1,4.49-3.35c-4.69-1.64-7.29.24-9.72,3.07-7,8.21-13.36,17-21.37,24.39-.56.51-1.65.91-1.08,1.91.75,1.33,1.69.41,2.51,0,5.84-3.22,9.63-8.6,14.09-13.3,1.23-1.3,1.86-3.49,4.46-3.58-.94,5.89,1.21,11,2.44,16.38A14.8,14.8,0,0,1,253.76,255c-4.83.48-6.78-1.87-5.48-6.6,1.74-6.33,6.34-8.93,13.85-7.83-7.16-4.5-14.54-2.19-18.3,5.71-3.43,7.2-.76,11.5,7.19,11.77,6.68.23,12.74-1.68,18.65-4.65s10.61-7.22,16.13-11.54c-.34,1.85-.63,3-.75,4.13-.92,8.63,4.1,13.42,12.59,11.92a17.16,17.16,0,0,0,6.75-3,61.15,61.15,0,0,0,10-9.16c1.93,12,9.75,15.53,24,5.67,2.11,8.56,10.54,9.64,16,3.25C359.07,249.09,367,237.37,370.27,232.92ZM376.36,214c.12-.14,1.19-1.19,2.12-.44,1.37,1.1-.84,3-1.46,4.35C375.46,216.29,375.54,215,376.36,214Zm-39.8,2.25c2-1.79,4.65-3.16,7.3-1.59,2.49,1.48,2.29,4.35,1.94,6.79a58.43,58.43,0,0,1-11.57,27.67,11.11,11.11,0,0,1-2.57,2.34c-2.36,1.6-4.85,3.17-7.84,1.78-3.22-1.49-2.79-4.55-2.94-8.24C322.24,233.93,327.72,224.16,336.56,216.24Z"/><path class="cls-1" d="M209.86,126.56c-2.65-3.82-10.95-15.46-12.55-19.08-2.43-5.51-5.14-11.66-3.48-17.67,1.26-4.55,4.3-8.44,9.1-8.87a40.26,40.26,0,0,1,16.79,2,11.76,11.76,0,0,0-1,4.5c0,7.91,3.63,13.79,10.75,17.11a72.71,72.71,0,0,0,11.75,3.76c4.07,1.1,8.23,1.91,12,4a7.52,7.52,0,0,1,3.92,4.66,7.35,7.35,0,0,1-3.16,8.14c-5.83,4.14-11.9,3.92-18,.65-5.35-2.88-8.64-7.6-11.15-13l-1.57-3.33c-2.06,1.07-2.92,2.58-2.53,4.75a20.23,20.23,0,0,0,3.27,6.69c4.31,6.26,6.71,7.76,12.52,10.59,6.4,3.11,19.39,1.45,24.9-5.59a12.9,12.9,0,0,0-4.76-19.13,48.84,48.84,0,0,0-7.09-2.84c-5.73-1.86-11.54-3.46-17.25-5.38a14.32,14.32,0,0,1-10-14.25,3.58,3.58,0,0,1,.62-1.9,1.93,1.93,0,0,0,0-2.76A32.89,32.89,0,0,0,219,75.9a28.14,28.14,0,0,0-13.24-5.09c-9.35-1.2-16.68.88-22.73,10.31a23.72,23.72,0,0,0-2.84,10c.06,7.42,2.63,12.45,6.55,18.72,2.25,3.31,1.28,2.55,7.37,8.48,2.88,2.81,10.73,7.48,13.43,8.69C210.45,128.33,211.32,128.68,209.86,126.56Z"/><path class="cls-1" d="M310.4,85.64c-1.3-5.94-5.51-9.78-10.56-12.66-5.43-3.09-11.29-2.92-17.19-1.6a29.47,29.47,0,0,0-12.18,5.95,40,40,0,0,0-4.62-4,29.29,29.29,0,0,0-8.8-4.13c-.9-.3-4.41-1.05-4.41-1.05s-.24-.6-.44-1.16c-.74-2.07-1-2.94-1.72-5.28-.37-1.3-.27-2,.88-2.77,2.26-1.5,4.47-3.45,6.67-5-3,0-6.93,0-9.24,0-.53,0-.88,0-1.4-1.61-.89-2.7-1.68-5.44-2.66-8.53-.31.85-.5,1.31-.65,1.78-.69,2.21-1.33,4.44-2,6.64-.48,1.51-.3,1.58-1.37,1.65-1.8.12-7.23.11-7.23.11a20.76,20.76,0,0,0-2.14,0c2.55,1.9,4.76,3.59,7,5.19.85.6,1.22.9.83,1.92l-2.84,8.19a28.58,28.58,0,0,0-2.94,1.3,12.25,12.25,0,0,0-6.58,8.19c-1.09,5.17.81,9.39,4.81,12.69,2.45,2,5.44,2.94,8.42,3.84,5.54,1.67,11.17,3.1,16.61,5.07,8.68,3.14,13.1,10.33,12.48,19.53-.06.85-.2,1.7-.3,2.55l.45.34a2.28,2.28,0,0,1,.22-.68c5.56-7.55,5-15.6-1-22.23-3.32-3.7-7.87-5.36-12.45-6.75-6.07-1.85-12.21-3.48-18.31-5.22a4.89,4.89,0,0,1-3.92-4.51c-.19-2.39.38-4.65,2.59-5.92,4.27-2.44,8.89-3.93,13.85-3.13,3.6.58,7.13,1.63,10.68,2.52,2.62.66,5.22,1.42,7.9,2.15l-.38.81c-1,2.12-.57,2.55,1.71,2.67,1.66.09,4.31-.32,6-.42,3.79-.22,7.34-.42,11.13-.37a11.13,11.13,0,0,1,9.52,5.92c1.71,3.43,1.27,7.21.81,11-.66,5.46-3.66,10.36-6.56,14.93-2.58,4.07-5.43,8-8.13,12a23.71,23.71,0,0,0-1.25,2.35l.34.27a8.81,8.81,0,0,0,1.33-.35c1.19-.51,2.4-1,3.53-1.63,12.77-7.06,21.66-17.08,23.82-32A24.19,24.19,0,0,0,310.4,85.64Zm-73-16.53c1.37-1,2.67-2,4-2.92,1.93-1.37,2.88-2.31,3.31-2.31s1.33.91,3.33,2.31c.75.53,1.49,1.09,2.31,1.7A36.83,36.83,0,0,0,237.41,69.11Z"/></svg>