<svg id="圖層_1" data-name="圖層 1" xmlns="http://www.w3.org/2000/svg" viewBox="0 0 143.27 143.28"><title>line</title><path d="M117.36,0H26.11A26.06,26.06,0,0,0,0,25.91v91.25a26.07,26.07,0,0,0,25.91,26.12h91.25a26.06,26.06,0,0,0,26.11-25.92V26.11A26.06,26.06,0,0,0,117.36,0Zm-5,91.38h0C101.45,104,77,119.32,71.4,121.67s-4.75-1.49-4.52-2.81c.13-.78.74-4.47.74-4.47a10.71,10.71,0,0,0-.17-4.72c-.58-1.45-2.9-2.21-4.6-2.57C37.8,103.79,19.24,86.27,19.24,65.34,19.24,42,42.64,23,71.4,23s52.16,19,52.16,42.33C123.57,74.68,119.95,83.09,112.39,91.38Z"/><path d="M60.81,54.06H57.15a1,1,0,0,0-1,1V77.8a1,1,0,0,0,1,1h3.66a1,1,0,0,0,1-1V55.07a1,1,0,0,0-1-1"/><path d="M86,54.06H82.33a1,1,0,0,0-1,1v13.5L70.9,54.51l-.08-.1h0l-.06-.06,0,0-.05,0,0,0-.05,0,0,0-.05,0,0,0-.06,0h0l-.06,0H66.39a1,1,0,0,0-1,1V77.8a1,1,0,0,0,1,1h3.66a1,1,0,0,0,1-1V64.3L81.5,78.39a1,1,0,0,0,.26.25h0l.06,0,0,0,0,0,0,0h0l.07,0h0a1,1,0,0,0,.26,0H86a1,1,0,0,0,1-1V55.07a1,1,0,0,0-1-1"/><path d="M52,73.13H42V55.07a1,1,0,0,0-1-1H37.37a1,1,0,0,0-1,1V77.8h0a1,1,0,0,0,.28.7v0h0a1,1,0,0,0,.7.28H52a1,1,0,0,0,1-1V74.14a1,1,0,0,0-1-1"/><path d="M106.2,59.75a1,1,0,0,0,1-1V55.08a1,1,0,0,0-1-1H91.58a1,1,0,0,0-.7.29h0l0,0a1,1,0,0,0-.28.7h0V77.8h0a1,1,0,0,0,.28.7v0h0a1,1,0,0,0,.7.28H106.2a1,1,0,0,0,1-1V74.14a1,1,0,0,0-1-1H96.26V69.28h9.94a1,1,0,0,0,1-1V64.61a1,1,0,0,0-1-1H96.26V59.75Z"/></svg>